PathFileType	4	(X/Y/Z)	webcam_static.trc
DataRate	CameraRate	NumFrames	NumMarkers	Units	OrigDataRate	OrigDataStartFrame	OrigNumFrames
29.300983568096093	29.300983568096093	28	12	mm	29.300983568096093	1	1294
Frame#	Time	JOINT_RIGHT_SHOULDER			JOINT_LEFT_SHOULDER			JOINT_RIGHT_ELBOW			JOINT_LEFT_ELBOW			JOINT_LEFT_WRIST			JOINT_RIGHT_WRIST			JOINT_RIGHT_PINKY			JOINT_LEFT_PINKY			JOINT_RIGHT_INDEX			JOINT_LEFT_INDEX			JOINT_RIGHT_HIP			JOINT_LEFT_HIP
		X1	Y1	Z1	X2	Y2	Z2	X3	Y3	Z3	X4	Y4	Z4	X5	Y5	Z5	X6	Y6	Z6	X7	Y7	Z7	X8	Y8	Z8	X9	Y9	Z9	X10	Y10	Z10	X11	Y11	Z11	X12	Y12	Z12

1	1753709308.417267	205.978617	398.155481	168.785378	152.759790	397.927582	-159.539476	173.034832	130.967438	204.114020	120.141722	169.688612	-168.321773	185.372412	-64.495169	-290.377229	233.060107	-90.591133	299.915493	240.257636	-144.424438	338.706791	200.165883	-126.482993	-332.869500	285.326928	-150.817350	333.861679	238.993883	-139.968097	-326.111376	8.664870	6.432934	116.150208	-9.916350	-6.570936	-116.083942
2	1753709308.445921	184.142083	405.665338	167.881012	131.315246	406.236291	-159.645170	160.535306	141.182765	201.335609	105.647489	172.976077	-168.188259	185.380757	-45.356050	-280.911595	232.945278	-79.243831	294.069886	240.485251	-132.448867	329.611033	200.711444	-107.031822	-320.362478	285.359949	-139.752746	324.701697	239.487886	-117.619753	-312.234968	10.370855	4.503485	116.150931	-11.739533	-4.616591	-116.083585
3	1753709308.476373	161.579102	411.639243	165.119916	98.509386	412.130177	-159.870282	140.415981	147.848070	198.751882	71.988299	177.919760	-170.551881	164.764091	-32.937467	-278.927088	217.493951	-76.834731	290.173322	226.226032	-130.587429	323.709637	181.568071	-94.593592	-316.281587	268.439770	-138.414055	317.345113	218.210831	-102.445908	-306.950986	12.946350	4.079636	116.146073	-14.364847	-4.126673	-116.063416
4	1753709308.503678	153.123274	412.365228	165.146962	88.376716	413.018942	-159.936354	131.236553	150.689095	198.812500	58.588099	178.784430	-171.589509	151.062652	-32.514676	-275.198996	212.328494	-74.524738	294.465333	222.116441	-128.819942	326.828450	169.021741	-95.685408	-312.360406	264.029145	-137.802303	318.925917	204.843611	-104.454987	-301.052719	14.338894	3.956083	116.564095	-15.785035	-3.948215	-116.409197
5	1753709308.531838	154.504418	412.248343	164.912015	91.619991	412.506640	-160.137132	134.196460	150.391608	198.949412	64.867176	178.037763	-172.250658	154.845983	-32.049377	-273.598999	213.224441	-73.989376	297.381252	223.499820	-128.046721	328.068852	171.119645	-94.799951	-311.144114	264.774650	-137.116104	319.205076	208.287328	-102.551743	-298.518181	15.749145	3.591389	116.951145	-17.234210	-3.510537	-116.742626
6	1753709308.558583	151.193097	413.889796	164.938152	86.908132	413.156390	-160.145700	132.986173	152.152568	199.395806	64.964376	177.895024	-174.190074	156.656489	-32.574434	-273.914099	214.312017	-70.408992	304.180324	224.025294	-123.888940	334.363043	172.924221	-96.064091	-311.822951	266.057163	-133.960009	324.299544	209.091127	-104.409903	-298.584700	16.736807	3.247788	117.240041	-18.226391	-3.074998	-116.978444
7	1753709308.595308	145.710483	415.903270	163.893238	81.977747	413.892150	-161.965877	130.708247	154.710174	199.413747	63.581683	177.776784	-178.758577	157.498464	-30.986153	-274.253845	215.065807	-64.597607	305.363148	225.864202	-117.049038	335.661381	176.762417	-94.764732	-312.353343	266.758531	-128.187850	324.446082	210.738346	-103.750288	-298.766106	17.546458	3.249253	117.783256	-19.015633	-3.061908	-117.453583
8	1753709308.625108	149.459675	416.931748	162.330136	87.194629	414.521456	-165.432855	131.873250	155.177772	199.558035	66.426754	177.704200	-183.361501	164.222673	-30.677103	-279.054254	219.350308	-64.180635	306.808621	232.590377	-116.902709	337.779641	184.822381	-95.023088	-316.288352	271.768391	-127.722308	326.361984	220.377326	-104.154810	-301.925510	17.627651	3.187162	117.928237	-19.079460	-2.961402	-117.557995
9	1753709308.662912	155.169308	416.961044	162.322968	88.978522	414.556265	-165.636778	134.781361	155.656561	202.597380	68.236493	177.873909	-184.793413	172.512263	-28.725615	-281.225204	224.995911	-64.511918	308.222651	239.683911	-117.310166	338.666379	194.131717	-92.861831	-317.799777	278.706223	-127.581134	327.331543	230.791062	-100.728348	-303.129345	17.793754	2.832558	117.933117	-19.210089	-2.546737	-117.548168
10	1753709308.697419	155.766517	417.823046	162.271857	91.448054	415.156394	-166.642115	135.419667	156.354249	204.324722	69.318235	178.162500	-188.264057	173.263699	-26.410483	-287.056565	226.179332	-64.244054	309.556305	240.660667	-116.757572	340.983808	194.342062	-89.961745	-323.064774	279.088020	-127.192765	329.703152	231.232688	-97.722314	-309.664279	17.789947	2.858970	117.995724	-19.196162	-2.552896	-117.581457
11	1753709308.734023	160.682335	417.869031	161.939025	92.035703	415.396124	-167.973593	143.941090	156.155542	206.690550	69.749065	178.144440	-191.065460	177.512199	-25.158472	-291.765481	235.193402	-64.586252	311.737478	250.554234	-117.053613	343.079507	198.499233	-87.946594	-328.357428	287.371248	-127.347738	331.242532	236.046612	-95.169850	-315.072447	17.871458	2.900690	118.159629	-19.257840	-2.571961	-117.700867
12	1753709308.767693	166.844398	417.763352	161.642939	93.842827	415.316045	-168.621168	150.090486	156.052843	208.936855	70.010625	177.961215	-192.560419	179.955468	-24.708526	-294.817209	241.313860	-64.849943	313.515753	257.812470	-117.325887	344.193757	201.342091	-87.067209	-332.134038	294.564605	-127.428204	331.965983	239.105359	-93.649223	-319.231600	17.941600	2.839834	118.266769	-19.314038	-2.483438	-117.777601
13	1753709308.798306	169.230521	417.783737	161.467358	94.893180	415.411144	-168.997541	154.071942	156.118229	211.596489	71.105160	177.972317	-194.800705	183.020130	-23.943186	-297.000378	245.385841	-64.808272	314.913243	262.519658	-117.291123	345.076650	204.746664	-86.335815	-334.311366	298.904926	-127.026469	332.428604	242.730483	-92.578009	-321.094573	17.953224	2.807894	118.341848	-19.319246	-2.432051	-117.830396
14	1753709308.832958	168.226525	418.147147	161.447197	95.376514	416.336924	-169.003442	153.473347	156.335995	212.926403	71.114592	178.414792	-195.555925	182.930171	-23.572713	-297.224283	244.801983	-64.882934	315.314233	261.213034	-117.364265	345.202357	204.548642	-86.081907	-334.528357	298.304111	-126.942888	332.502753	242.480323	-92.180237	-321.059346	17.977295	2.786011	118.391007	-19.335246	-2.398070	-117.865354
15	1753709308.870184	164.917603	419.288278	161.630481	94.176330	417.658061	-168.879792	150.772721	157.340482	214.937672	69.890715	179.047137	-195.462242	181.530267	-22.961020	-296.960741	242.678553	-63.837864	316.646725	259.904325	-116.279632	346.050113	203.629285	-85.740209	-334.320277	296.097428	-125.445455	333.284616	241.510734	-91.516525	-320.922732	17.996224	2.711812	118.430704	-19.348159	-2.304845	-117.895566
16	1753709308.902678	165.119201	419.157773	161.466435	94.749302	418.105751	-169.002712	150.882125	156.503275	215.060234	70.130996	179.404095	-195.900142	181.504503	-23.156272	-296.777606	242.197245	-63.933365	316.560447	259.172797	-116.293080	345.983565	203.497484	-85.878953	-333.800107	295.530677	-125.309080	333.237946	241.356552	-91.676258	-319.745213	18.126654	2.721610	118.447579	-19.467823	-2.304383	-117.910296
17	1753709308.938166	165.675327	418.738127	160.713419	95.944256	418.130368	-169.731319	151.633263	154.969990	214.971244	71.779385	179.406151	-196.572274	182.459086	-23.312230	-296.628535	242.184043	-64.455584	316.298366	258.710951	-116.586693	345.713735	204.384729	-85.988164	-333.664387	295.027226	-125.488058	332.903147	242.305845	-91.845416	-319.517732	18.262120	2.731801	118.466146	-19.597661	-2.305143	-117.925338
18	1753709308.972966	165.492132	418.600023	159.922093	96.390218	418.111980	-170.988977	151.610151	154.199615	214.887545	71.965575	179.318920	-197.605729	182.558596	-23.452448	-297.159791	241.901726	-64.935446	316.221774	258.239448	-116.952099	345.691353	204.510093	-86.161576	-333.969951	294.757694	-125.786737	332.773864	242.397219	-92.118770	-319.687694	18.329589	2.755024	118.539296	-19.660637	-2.317287	-117.989622
19	1753709309.005826	165.863916	418.085754	159.232721	97.373635	417.950392	-171.781301	152.087837	153.436393	214.791507	73.426992	179.021120	-198.097125	183.812574	-23.777997	-297.177553	242.272556	-65.699287	316.137105	258.452803	-117.726028	345.584244	205.849960	-86.655512	-333.930135	294.692367	-126.493052	332.529247	243.760780	-92.829049	-319.620609	18.437525	2.760604	118.573435	-19.767314	-2.316442	-118.019320
20	1753709309.037751	165.922821	417.823613	158.705130	98.261595	417.856574	-172.915518	152.105570	153.051496	214.539006	74.826941	178.941131	-199.295014	184.591338	-24.085058	-297.467738	242.114171	-66.268891	315.958411	258.192539	-118.317358	345.414966	206.573218	-87.060742	-334.082633	294.530809	-127.123535	332.286954	244.447514	-93.543731	-319.672853	18.505223	2.790355	118.643120	-19.836953	-2.335554	-118.083887
21	1753709309.076299	166.397735	417.345703	158.624962	99.595137	417.798966	-173.535585	152.282670	152.383208	214.491621	77.028908	178.891927	-199.830979	188.141778	-24.181241	-297.512054	242.087871	-66.873334	315.915555	258.040100	-118.869506	345.472813	210.221499	-87.187603	-334.052503	294.316858	-127.539128	332.414091	248.161018	-93.720302	-319.629848	18.518487	2.794500	118.699528	-19.849567	-2.334902	-118.133552
22	1753709309.106735	166.406035	417.170852	158.443779	99.772386	417.777836	-174.256891	151.552409	152.187571	214.468166	77.070966	178.887337	-200.629070	187.766820	-24.244614	-297.745943	240.376025	-67.022420	315.892071	256.015420	-118.989334	345.548987	209.801838	-87.252676	-334.133536	291.553378	-127.604187	332.503349	247.770578	-93.842193	-319.621980	18.557146	2.842227	118.761137	-19.889012	-2.370471	-118.190482
23	1753709309.142264	165.370733	417.132378	157.887012	99.452816	417.985231	-175.286278	149.080262	152.043536	214.300826	76.378077	179.179251	-202.067330	187.079534	-24.302969	-298.260212	235.975146	-67.071468	315.851122	250.772625	-119.039670	345.792055	208.672866	-87.369651	-334.239274	285.826027	-127.641797	332.917243	246.565893	-93.943387	-319.631010	18.552998	3.024163	118.828341	-19.882681	-2.527494	-118.251584
24	1753709309.178106	164.236918	417.177916	157.370314	99.385135	418.279350	-177.201152	146.953121	152.016178	214.047164	76.237656	179.291502	-203.467563	187.005341	-24.306534	-298.887759	233.633995	-66.927679	315.765619	248.312473	-118.936084	345.785111	208.577648	-87.472022	-334.539324	283.145994	-127.444893	332.941562	246.477067	-94.106622	-319.765747	18.545307	3.276208	118.968196	-19.873340	-2.753461	-118.384063
25	1753709309.209232	162.061185	417.763293	157.357067	97.032957	419.032782	-177.279040	142.446339	152.710140	214.009464	72.371915	180.303320	-203.914136	183.192775	-24.050333	-298.923016	227.442548	-66.160552	315.780997	241.436094	-118.420213	346.206278	204.012722	-87.533064	-334.465533	276.617020	-127.001315	333.674252	241.767153	-94.252408	-319.563091	18.545331	3.567366	118.992679	-19.871347	-3.019229	-118.405692
26	1753709309.244460	160.799310	417.902321	157.657266	96.423432	419.513464	-177.146763	141.565353	152.855143	214.198172	72.246678	180.730999	-203.859970	183.187559	-23.581577	-298.550814	227.079228	-65.524131	316.179425	241.210550	-117.898360	346.835464	204.021856	-87.359332	-333.883941	276.286006	-126.400337	334.487110	241.770327	-94.295748	-318.640679	18.546911	3.745886	119.032577	-19.871941	-3.183403	-118.443444
27	1753709309.278840	160.172403	417.810500	157.976046	95.603190	419.796199	-176.597178	140.893146	152.843043	214.562431	71.599655	181.125119	-203.204691	182.377934	-23.264166	-297.787845	225.708514	-65.486223	316.822708	239.669651	-117.919065	347.618759	203.204170	-87.327592	-333.198041	274.666786	-126.419753	335.353196	240.736023	-94.377518	-317.674667	18.570522	3.839360	119.068660	-19.895755	-3.267468	-118.478440
28	1753709309.315187	160.221249	417.743504	158.576488	96.228741	419.930726	-176.295921	141.017675	153.043106	215.621591	73.335886	181.588888	-203.117877	185.582936	-22.768715	-297.558129	225.901216	-64.969420	318.037570	239.908278	-117.478497	349.089980	206.491604	-87.002903	-332.862407	274.938017	-125.905633	337.217957	244.129702	-94.277412	-317.210376	18.496422	3.853067	119.099289	-19.813953	-3.278104	-118.504196
